<?xml version="1.0" encoding="UTF-8" standalone="no"?>
<!DOCTYPE svg PUBLIC "-//W3C//DTD SVG 1.1//EN"
 "http://www.w3.org/Graphics/SVG/1.1/DTD/svg11.dtd">
<!-- Generated by graphviz version 2.43.0 (0)
 -->
<!-- Title: G Pages: 1 -->
<svg width="579pt" height="678pt"
 viewBox="0.00 0.00 578.63 678.00" xmlns="http://www.w3.org/2000/svg" xmlns:xlink="http://www.w3.org/1999/xlink">
<g id="graph0" class="graph" transform="scale(1 1) rotate(0) translate(4 674)">
<title>G</title>
<polygon fill="white" stroke="transparent" points="-4,4 -4,-674 574.63,-674 574.63,4 -4,4"/>
<g id="clust1" class="cluster">
<title>cluster_Global</title>
<path fill="none" stroke="gray" d="M329.61,-8C329.61,-8 550.63,-8 550.63,-8 556.63,-8 562.63,-14 562.63,-20 562.63,-20 562.63,-650 562.63,-650 562.63,-656 556.63,-662 550.63,-662 550.63,-662 329.61,-662 329.61,-662 323.61,-662 317.61,-656 317.61,-650 317.61,-650 317.61,-20 317.61,-20 317.61,-14 323.61,-8 329.61,-8"/>
<text text-anchor="middle" x="440.12" y="-649.2" font-family="Times,serif" font-size="11.00" fill="gray">Global</text>
</g>
<g id="clust2" class="cluster">
<title>cluster_\Knack</title>
<path fill="none" stroke="gray" d="M337.61,-16C337.61,-16 542.63,-16 542.63,-16 548.63,-16 554.63,-22 554.63,-28 554.63,-28 554.63,-623 554.63,-623 554.63,-629 548.63,-635 542.63,-635 542.63,-635 337.61,-635 337.61,-635 331.61,-635 325.61,-629 325.61,-623 325.61,-623 325.61,-28 325.61,-28 325.61,-22 331.61,-16 337.61,-16"/>
<text text-anchor="middle" x="440.12" y="-622.2" font-family="Times,serif" font-size="11.00" fill="gray">Knack</text>
</g>
<g id="clust3" class="cluster">
<title>cluster_\Knack\ZeroBounce</title>
<path fill="none" stroke="gray" d="M345.61,-24C345.61,-24 534.63,-24 534.63,-24 540.63,-24 546.63,-30 546.63,-36 546.63,-36 546.63,-596 546.63,-596 546.63,-602 540.63,-608 534.63,-608 534.63,-608 345.61,-608 345.61,-608 339.61,-608 333.61,-602 333.61,-596 333.61,-596 333.61,-36 333.61,-36 333.61,-30 339.61,-24 345.61,-24"/>
<text text-anchor="middle" x="440.12" y="-595.2" font-family="Times,serif" font-size="11.00" fill="gray">ZeroBounce</text>
</g>
<g id="clust4" class="cluster">
<title>cluster_\Knack\ZeroBounce\Exceptions</title>
<path fill="none" stroke="gray" d="M370.11,-402C370.11,-402 510.13,-402 510.13,-402 516.13,-402 522.13,-408 522.13,-414 522.13,-414 522.13,-569 522.13,-569 522.13,-575 516.13,-581 510.13,-581 510.13,-581 370.11,-581 370.11,-581 364.11,-581 358.11,-575 358.11,-569 358.11,-569 358.11,-414 358.11,-414 358.11,-408 364.11,-402 370.11,-402"/>
<text text-anchor="middle" x="440.12" y="-568.2" font-family="Times,serif" font-size="11.00" fill="gray">Exceptions</text>
</g>
<g id="clust5" class="cluster">
<title>cluster_\Knack\ZeroBounce\API</title>
<path fill="none" stroke="gray" d="M393.21,-269C393.21,-269 487.03,-269 487.03,-269 493.03,-269 499.03,-275 499.03,-281 499.03,-281 499.03,-382 499.03,-382 499.03,-388 493.03,-394 487.03,-394 487.03,-394 393.21,-394 393.21,-394 387.21,-394 381.21,-388 381.21,-382 381.21,-382 381.21,-281 381.21,-281 381.21,-275 387.21,-269 393.21,-269"/>
<text text-anchor="middle" x="440.12" y="-381.2" font-family="Times,serif" font-size="11.00" fill="gray">API</text>
</g>
<g id="clust6" class="cluster">
<title>cluster_\Knack\ZeroBounce\Providers</title>
<path fill="none" stroke="gray" d="M353.61,-190C353.61,-190 526.63,-190 526.63,-190 532.63,-190 538.63,-196 538.63,-202 538.63,-202 538.63,-249 538.63,-249 538.63,-255 532.63,-261 526.63,-261 526.63,-261 353.61,-261 353.61,-261 347.61,-261 341.61,-255 341.61,-249 341.61,-249 341.61,-202 341.61,-202 341.61,-196 347.61,-190 353.61,-190"/>
<text text-anchor="middle" x="440.12" y="-248.2" font-family="Times,serif" font-size="11.00" fill="gray">Providers</text>
</g>
<g id="clust7" class="cluster">
<title>cluster_\Knack\ZeroBounce\Utilities</title>
<path fill="none" stroke="gray" d="M399.81,-111C399.81,-111 480.43,-111 480.43,-111 486.43,-111 492.43,-117 492.43,-123 492.43,-123 492.43,-170 492.43,-170 492.43,-176 486.43,-182 480.43,-182 480.43,-182 399.81,-182 399.81,-182 393.81,-182 387.81,-176 387.81,-170 387.81,-170 387.81,-123 387.81,-123 387.81,-117 393.81,-111 399.81,-111"/>
<text text-anchor="middle" x="440.12" y="-169.2" font-family="Times,serif" font-size="11.00" fill="gray">Utilities</text>
</g>
<g id="clust8" class="cluster">
<title>cluster_\Knack\ZeroBounce\Models</title>
<path fill="none" stroke="gray" d="M409.72,-32C409.72,-32 470.52,-32 470.52,-32 476.52,-32 482.52,-38 482.52,-44 482.52,-44 482.52,-91 482.52,-91 482.52,-97 476.52,-103 470.52,-103 470.52,-103 409.72,-103 409.72,-103 403.72,-103 397.72,-97 397.72,-91 397.72,-91 397.72,-44 397.72,-44 397.72,-38 403.72,-32 409.72,-32"/>
<text text-anchor="middle" x="440.12" y="-90.2" font-family="Times,serif" font-size="11.00" fill="gray">Models</text>
</g>
<!-- \\Knack\\ZeroBounce\\Exceptions\\ResponseException -->
<g id="node1" class="node">
<title>\\Knack\\ZeroBounce\\Exceptions\\ResponseException</title>
<polygon fill="none" stroke="black" points="504.34,-554 375.9,-554 375.9,-518 504.34,-518 504.34,-554"/>
<text text-anchor="middle" x="440.12" y="-532.7" font-family="Courier,monospace" font-size="11.00">ResponseException</text>
</g>
<!-- \\RuntimeException -->
<g id="node9" class="node">
<title>\\RuntimeException</title>
<ellipse fill="none" stroke="black" cx="138.8" cy="-482" rx="78.75" ry="18"/>
<text text-anchor="middle" x="138.8" y="-477.8" font-family="Times,serif" font-size="14.00" fill="gray">\RuntimeException</text>
</g>
<!-- \\Knack\\ZeroBounce\\Exceptions\\ResponseException&#45;&gt;\\RuntimeException -->
<g id="edge1" class="edge">
<title>\\Knack\\ZeroBounce\\Exceptions\\ResponseException&#45;&gt;\\RuntimeException</title>
<path fill="none" stroke="black" d="M376.01,-524.61C327.87,-515.93 261.53,-503.96 211.41,-494.92"/>
<polygon fill="none" stroke="black" points="211.75,-491.42 201.29,-493.09 210.51,-498.31 211.75,-491.42"/>
</g>
<!-- \\Knack\\ZeroBounce\\Exceptions\\EmptyAPIKeyException -->
<g id="node2" class="node">
<title>\\Knack\\ZeroBounce\\Exceptions\\EmptyAPIKeyException</title>
<polygon fill="none" stroke="black" points="514.14,-500 366.1,-500 366.1,-464 514.14,-464 514.14,-500"/>
<text text-anchor="middle" x="440.12" y="-478.7" font-family="Courier,monospace" font-size="11.00">EmptyAPIKeyException</text>
</g>
<!-- \\Knack\\ZeroBounce\\Exceptions\\EmptyAPIKeyException&#45;&gt;\\RuntimeException -->
<g id="edge2" class="edge">
<title>\\Knack\\ZeroBounce\\Exceptions\\EmptyAPIKeyException&#45;&gt;\\RuntimeException</title>
<path fill="none" stroke="black" d="M365.9,-482C324.23,-482 271.76,-482 227.86,-482"/>
<polygon fill="none" stroke="black" points="227.76,-478.5 217.76,-482 227.76,-485.5 227.76,-478.5"/>
</g>
<!-- \\Knack\\ZeroBounce\\Exceptions\\ZeroBounceException -->
<g id="node3" class="node">
<title>\\Knack\\ZeroBounce\\Exceptions\\ZeroBounceException</title>
<polygon fill="none" stroke="black" points="511.04,-446 369.2,-446 369.2,-410 511.04,-410 511.04,-446"/>
<text text-anchor="middle" x="440.12" y="-424.7" font-family="Courier,monospace" font-size="11.00">ZeroBounceException</text>
</g>
<!-- \\Knack\\ZeroBounce\\Exceptions\\ZeroBounceException&#45;&gt;\\RuntimeException -->
<g id="edge4" class="edge">
<title>\\Knack\\ZeroBounce\\Exceptions\\ZeroBounceException&#45;&gt;\\RuntimeException</title>
<path fill="none" stroke="black" d="M369.32,-440.59C321.75,-449.18 258.94,-460.51 211.06,-469.14"/>
<polygon fill="none" stroke="black" points="210.3,-465.73 201.08,-470.95 211.54,-472.61 210.3,-465.73"/>
</g>
<!-- \\Knack\\ZeroBounce\\API\\ZeroBounceAPI -->
<g id="node4" class="node">
<title>\\Knack\\ZeroBounce\\API\\ZeroBounceAPI</title>
<polygon fill="none" stroke="black" points="490.93,-367 389.31,-367 389.31,-331 490.93,-331 490.93,-367"/>
<text text-anchor="middle" x="440.12" y="-345.7" font-family="Courier,monospace" font-size="11.00">ZeroBounceAPI</text>
</g>
<!-- \\Knack\\ZeroBounce\\API\\ZeroBounce -->
<g id="node5" class="node">
<title>\\Knack\\ZeroBounce\\API\\ZeroBounce</title>
<polygon fill="none" stroke="black" points="481.13,-313 399.11,-313 399.11,-277 481.13,-277 481.13,-313"/>
<text text-anchor="middle" x="440.12" y="-291.7" font-family="Courier,monospace" font-size="11.00">ZeroBounce</text>
</g>
<!-- \\Knack\\ZeroBounce\\Providers\\ZeroBounceServiceProvider -->
<g id="node6" class="node">
<title>\\Knack\\ZeroBounce\\Providers\\ZeroBounceServiceProvider</title>
<polygon fill="none" stroke="black" points="530.65,-234 349.59,-234 349.59,-198 530.65,-198 530.65,-234"/>
<text text-anchor="middle" x="440.12" y="-212.7" font-family="Courier,monospace" font-size="11.00">ZeroBounceServiceProvider</text>
</g>
<!-- \\Illuminate\\Support\\ServiceProvider -->
<g id="node10" class="node">
<title>\\Illuminate\\Support\\ServiceProvider</title>
<ellipse fill="none" stroke="black" cx="138.8" cy="-216" rx="138.61" ry="18"/>
<text text-anchor="middle" x="138.8" y="-211.8" font-family="Times,serif" font-size="14.00" fill="gray">\Illuminate\Support\ServiceProvider</text>
</g>
<!-- \\Knack\\ZeroBounce\\Providers\\ZeroBounceServiceProvider&#45;&gt;\\Illuminate\\Support\\ServiceProvider -->
<g id="edge3" class="edge">
<title>\\Knack\\ZeroBounce\\Providers\\ZeroBounceServiceProvider&#45;&gt;\\Illuminate\\Support\\ServiceProvider</title>
<path fill="none" stroke="black" d="M349.32,-216C329.93,-216 308.94,-216 287.99,-216"/>
<polygon fill="none" stroke="black" points="287.71,-212.5 277.71,-216 287.71,-219.5 287.71,-212.5"/>
</g>
<!-- \\Knack\\ZeroBounce\\Utilities\\Environment -->
<g id="node7" class="node">
<title>\\Knack\\ZeroBounce\\Utilities\\Environment</title>
<polygon fill="none" stroke="black" points="484.23,-155 396.01,-155 396.01,-119 484.23,-119 484.23,-155"/>
<text text-anchor="middle" x="440.12" y="-133.7" font-family="Courier,monospace" font-size="11.00">Environment</text>
</g>
<!-- \\Knack\\ZeroBounce\\Models\\Response -->
<g id="node8" class="node">
<title>\\Knack\\ZeroBounce\\Models\\Response</title>
<polygon fill="none" stroke="black" points="474.43,-76 405.81,-76 405.81,-40 474.43,-40 474.43,-76"/>
<text text-anchor="middle" x="440.12" y="-54.7" font-family="Courier,monospace" font-size="11.00">Response</text>
</g>
</g>
</svg>
